<?xml version="1.0" encoding="UTF-8" standalone="no"?>
<svg
   xmlns:dc="http://purl.org/dc/elements/1.1/"
   xmlns:cc="http://creativecommons.org/ns#"
   xmlns:rdf="http://www.w3.org/1999/02/22-rdf-syntax-ns#"
   xmlns:svg="http://www.w3.org/2000/svg"
   xmlns="http://www.w3.org/2000/svg"
   xmlns:sodipodi="http://sodipodi.sourceforge.net/DTD/sodipodi-0.dtd"
   xmlns:inkscape="http://www.inkscape.org/namespaces/inkscape"
   width="24"
   height="24"
   viewBox="0 0 24 24"
   version="1.1"
   id="svg4"
   sodipodi:docname="hyperlynx-logo.svg"
   inkscape:version="1.0.1 (1.0.1+r73)"
   inkscape:export-filename="/home/awebsome/Téléchargements/hyperlynx-logo-32.png"
   inkscape:export-xdpi="128"
   inkscape:export-ydpi="128">
  <metadata
     id="metadata10">
    <rdf:RDF>
      <cc:Work
         rdf:about="">
        <dc:format>image/svg+xml</dc:format>
        <dc:type
           rdf:resource="http://purl.org/dc/dcmitype/StillImage" />
      </cc:Work>
    </rdf:RDF>
  </metadata>
  <defs
     id="defs8" />
  <sodipodi:namedview
     pagecolor="#ffffff"
     bordercolor="#666666"
     borderopacity="1"
     objecttolerance="10"
     gridtolerance="10"
     guidetolerance="10"
     inkscape:pageopacity="0"
     inkscape:pageshadow="2"
     inkscape:window-width="1600"
     inkscape:window-height="843"
     id="namedview6"
     showgrid="false"
     inkscape:zoom="12.809681"
     inkscape:cx="7.3478577"
     inkscape:cy="12.734462"
     inkscape:window-x="0"
     inkscape:window-y="0"
     inkscape:window-maximized="1"
     inkscape:current-layer="g910"
     showguides="false"
     inkscape:snap-bbox="true"
     inkscape:bbox-paths="true"
     inkscape:bbox-nodes="true"
     inkscape:snap-bbox-edge-midpoints="true"
     inkscape:snap-bbox-midpoints="true"
     inkscape:object-paths="true"
     inkscape:snap-intersection-paths="true"
     inkscape:snap-smooth-nodes="true"
     inkscape:snap-midpoints="true"
     inkscape:snap-object-midpoints="true"
     inkscape:snap-center="true"
     inkscape:snap-page="true"
     inkscape:document-rotation="0" />
  <g
     id="g910"
     transform="matrix(1.2717629,0,0,1.3251175,-3.2611545,-3.9014096)">
    <rect
       style="fill:#ffffff;fill-opacity:1;fill-rule:nonzero;stroke:none;stroke-width:0.447829;stroke-linejoin:bevel;stroke-opacity:1"
       id="rect946"
       width="18.871443"
       height="18.111601"
       x="2.5642786"
       y="2.9441991"
       inkscape:export-filename="/home/awebsome/Téléchargements/hyperlynx-logo-128.png"
       inkscape:export-xdpi="512"
       inkscape:export-ydpi="512" />
    <g
       id="g944"
       transform="matrix(1.1413332,0,0,1.2914756,-1.6644644,-3.855127)">
      <g
         id="g933">
        <g
           id="g919"
           transform="translate(0.84942087)">
          <path
             id="path915"
             style="fill:#ff953d;fill-opacity:1;stroke:none;stroke-width:0.100603;stroke-linejoin:bevel;stroke-miterlimit:4;stroke-dasharray:none;stroke-opacity:1"
             d="m 16.932238,9.092863 c 0.196366,-0.3831631 1.148661,-2.785564 1.076185,-2.6542395 -2.411348,4.3692555 -3.859585,3.3189654 -5.760977,4.9909185 -0.672514,0.609646 2.392119,1.309613 4.684792,-2.336679 z"
             sodipodi:nodetypes="cscc" />
          <path
             id="path935"
             style="fill:#e58637;fill-opacity:1;stroke:none;stroke-width:0.0949237;stroke-linejoin:bevel;stroke-miterlimit:4;stroke-dasharray:none;stroke-opacity:1"
             d="m 17.486063,8.3235707 c 0.09177,-0.3931527 0.567078,-1.9978959 0.513431,-1.8674718 -1.830955,4.4512911 -2.9132,3.0682932 -4.271732,5.0056651 -8.7870082,2.039332 0.157219,9.668269 3.758301,-3.1381933 z"
             sodipodi:nodetypes="cscc" />
        </g>
        <g
           id="g925"
           transform="matrix(-1,0,0,1,23.095321,0)">
          <path
             id="path921"
             style="fill:#ff953d;fill-opacity:1;stroke:none;stroke-width:0.100603;stroke-linejoin:bevel;stroke-miterlimit:4;stroke-dasharray:none;stroke-opacity:1"
             d="m 16.932238,9.092863 c 0.196366,-0.3831631 1.148661,-2.785564 1.076185,-2.6542395 -2.411348,4.3692555 -3.859585,3.3189654 -5.760977,4.9909185 -0.672514,0.609646 2.392119,1.309613 4.684792,-2.336679 z"
             sodipodi:nodetypes="cscc" />
          <path
             id="path923"
             style="fill:#e58637;fill-opacity:1;stroke:none;stroke-width:0.0949237;stroke-linejoin:bevel;stroke-miterlimit:4;stroke-dasharray:none;stroke-opacity:1"
             d="m 17.486063,8.3235707 c 0.09177,-0.3931527 0.567078,-1.9978959 0.513431,-1.8674718 -1.830955,4.4512911 -2.9132,3.0682932 -4.271732,5.0056651 -8.7870082,2.039332 0.157219,9.668269 3.758301,-3.1381933 z"
             sodipodi:nodetypes="cscc" />
        </g>
      </g>
      <path
         id="rect2270"
         style="fill:#fe953d;fill-opacity:1;fill-rule:evenodd;stroke:none;stroke-width:0.0833292;stroke-linejoin:bevel;stroke-miterlimit:4;stroke-dasharray:none;stroke-opacity:1"
         d="m 15.904746,12.578823 0.661252,2.056971 c -0.18598,2.738016 0,0 -4.593626,3.484275 C 7.3787435,14.635794 7.532147,17.565382 7.3787435,14.635794 l 0.6612517,-2.056971 c 0,-1.868373 7.7329628,-1.95552 7.8647508,0 z"
         sodipodi:nodetypes="cccccc" />
      <path
         id="rect898"
         style="fill:#fefefe;fill-opacity:1;fill-rule:nonzero;stroke-width:0.166438;stroke-linejoin:bevel"
         d="m 9.5819816,13.392686 c 0.8973114,-0.175975 1.6429384,-0.546122 2.4247174,-0.914815 0.742447,0.435719 1.565761,0.67176 2.424718,0.914815 -0.549656,2.304866 -0.233222,2.456237 -2.424718,3.659261 -2.0370002,-0.77838 -1.958816,-1.972932 -2.4247174,-3.659261 z"
         sodipodi:nodetypes="ccccc" />
    </g>
  </g>
  <text
     xml:space="preserve"
     style="font-size:6px;line-height:1.25;font-family:Roboto;-inkscape-font-specification:'Roboto, Normal';letter-spacing:0px;word-spacing:0px"
     x="-15.881302"
     y="0.073152646"
     id="text903"><tspan
       sodipodi:role="line"
       id="tspan901"
       x="-15.881302"
       y="0.073152646" /></text>
</svg>
